<svg xmlns="http://www.w3.org/2000/svg" width="394.314" height="324.289" viewBox="0 0 394.314 324.289">
  <g id="Group_11" data-name="Group 11" transform="translate(0 0.001)">
    <path id="Path_249" data-name="Path 249" d="M452.781,423.329c0-20.091,16.3-67.766,36.4-67.766s36.4,47.675,36.4,67.766a36.4,36.4,0,1,1-72.805,0Z" transform="translate(-331.617 -242.167)" fill="#f2f2f2"/>
    <path id="Path_250" data-name="Path 250" d="M523.022,540.187a.3.3,0,0,1-.3-.3V414.468a.3.3,0,1,1,.6,0V539.887a.3.3,0,0,1-.3.3Z" transform="translate(-365.456 -270.521)" fill="#3f3d56"/>
    <path id="Path_251" data-name="Path 251" d="M509.518,447.6a.3.3,0,0,1-.212-.088l-14.408-14.4a.3.3,0,1,1,.423-.423l14.408,14.4a.3.3,0,0,1-.212.511Z" transform="translate(-351.951 -279.44)" fill="#3f3d56"/>
    <path id="Path_252" data-name="Path 252" d="M523.022,486.784a.3.3,0,0,1-.212-.511L546.94,462.16a.3.3,0,1,1,.423.423L523.234,486.7a.3.3,0,0,1-.212.088Z" transform="translate(-365.456 -293.697)" fill="#3f3d56"/>
    <path id="Path_253" data-name="Path 253" d="M332.781,366.932c0-24.913,20.21-84.031,45.14-84.031s45.14,59.117,45.14,84.031a45.14,45.14,0,1,1-90.279,0Z" transform="translate(-273.56 -207.012)" fill="#e6e6e6"/>
    <path id="Path_254" data-name="Path 254" d="M419.881,511.837a.371.371,0,0,1-.371-.371V355.944a.371.371,0,0,1,.742,0V511.466a.371.371,0,0,1-.371.371Z" transform="translate(-315.52 -242.171)" fill="#3f3d56"/>
    <path id="Path_255" data-name="Path 255" d="M403.136,397.028a.37.37,0,0,1-.262-.109l-17.866-17.854a.371.371,0,1,1,.525-.525L403.4,396.4a.371.371,0,0,1-.262.633Z" transform="translate(-298.774 -253.231)" fill="#3f3d56"/>
    <path id="Path_256" data-name="Path 256" d="M419.881,445.618a.371.371,0,0,1-.262-.633l29.92-29.9a.371.371,0,1,1,.525.524l-29.92,29.9A.37.37,0,0,1,419.881,445.618Z" transform="translate(-315.52 -270.911)" fill="#3f3d56"/>
    <path id="Path_257" data-name="Path 257" d="M218.052,252.821c0-34.67,28.106-116.94,62.776-116.94S343.6,218.152,343.6,252.821a62.776,62.776,0,1,1-125.551,0Z" transform="translate(-218.052 -135.882)" fill="#6c63ff"/>
    <path id="Path_258" data-name="Path 258" d="M339.182,454.478a.516.516,0,0,1-.516-.516V237.532a.516.516,0,0,1,1.032,0v216.43A.516.516,0,0,1,339.182,454.478Z" transform="translate(-276.407 -184.812)" fill="#3f3d56"/>
    <path id="Path_259" data-name="Path 259" d="M315.894,294.705a.515.515,0,0,1-.365-.151l-24.846-24.846a.516.516,0,0,1,.73-.73l24.846,24.846a.516.516,0,0,1-.365.881Z" transform="translate(-253.119 -200.202)" fill="#3f3d56"/>
    <path id="Path_260" data-name="Path 260" d="M339.182,362.323a.516.516,0,0,1-.365-.881l41.61-41.61a.516.516,0,1,1,.73.73l-41.61,41.61A.515.515,0,0,1,339.182,362.323Z" transform="translate(-276.407 -224.806)" fill="#3f3d56"/>
    <path id="Path_261" data-name="Path 261" d="M620.992,658.076H237.464a.516.516,0,0,1,0-1.032H620.992a.516.516,0,0,1,0,1.032Z" transform="translate(-227.194 -388.027)" fill="#3f3d56"/>
    <path id="Path_262" data-name="Path 262" d="M818.182,569.749a1.351,1.351,0,1,0,0-2.7H805.351v-5.4h12.831a1.351,1.351,0,1,0,0-2.7h-109.4a1.351,1.351,0,0,0,0,2.7H721.61v5.4H708.779a1.351,1.351,0,1,0,0,2.7H721.61v5.4H708.779a1.351,1.351,0,1,0,0,2.7H721.61v5.4H710.13a2.7,2.7,0,0,0,0,5.4h10.929a2.014,2.014,0,0,0-.124.675v18.909a2.026,2.026,0,1,0,4.052,0V589.333a2.013,2.013,0,0,0-.124-.675H802.1a2.015,2.015,0,0,0-.124.675v18.909a2.026,2.026,0,1,0,4.052,0V589.333a2.013,2.013,0,0,0-.124-.675h10.929a2.7,2.7,0,1,0,0-5.4H805.351v-5.4h12.831a1.351,1.351,0,1,0,0-2.7H805.351v-5.4Zm-93.871-8.1h78.338v5.4H724.311Zm78.338,21.61H724.311v-5.4h78.338Zm0-8.1H724.311v-5.4h78.338Z" transform="translate(-454.818 -340.565)" fill="#3f3d56"/>
    <path id="Path_263" data-name="Path 263" d="M501.347,583.583a4.3,4.3,0,0,0-4.381-4.919l-27.514-27.819-5.435,7.6L492.771,583.4a4.319,4.319,0,0,0,8.576.184Z" transform="translate(-337.053 -336.646)" fill="#ffb8b8"/>
    <path id="Path_264" data-name="Path 264" d="M480.157,562.86l-4.958,4.95a1.8,1.8,0,0,1-2.533.01l-19.189-18.866a7.039,7.039,0,1,1,9.972-9.937l16.724,21.312a1.806,1.806,0,0,1-.016,2.53Z" transform="translate(-330.96 -329.922)" fill="#6c63ff"/>
    <circle id="Ellipse_61" data-name="Ellipse 61" cx="9.822" cy="9.822" r="9.822" transform="translate(116.811 174.733)" fill="#ffb8b8"/>
    <path id="Path_265" data-name="Path 265" d="M181.031,580.553l2.487,4.224L201,577.2l-3.67-6.235Z" transform="translate(-87.585 -276.238)" fill="#ffb8b8"/>
    <path id="Path_266" data-name="Path 266" d="M395.4,721.765l4.9,8.32h0a6.152,6.152,0,0,1-2.182,8.423l-.172.1-8.019-13.623Z" transform="translate(-301.204 -419.339)" fill="#2f2e41"/>
    <path id="Path_267" data-name="Path 267" d="M236.852,601.306h4.9l2.332-18.91h-7.235Z" transform="translate(-114.591 -281.77)" fill="#ffb8b8"/>
    <path id="Path_268" data-name="Path 268" d="M452.482,751.811h9.655a6.153,6.153,0,0,1,6.153,6.153v.2H452.482Z" transform="translate(-331.472 -433.876)" fill="#2f2e41"/>
    <path id="Path_269" data-name="Path 269" d="M410.6,679.151a1.8,1.8,0,0,1-1.449-.733L404.425,672a1.8,1.8,0,0,1,.45-2.563l21.039-14.053L413.22,622l27.148,2.24.914,28.685a14.414,14.414,0,0,1-7.216,12.966L411.5,678.909a1.8,1.8,0,0,1-.9.242Z" transform="translate(-308.052 -371.072)" fill="#2f2e41"/>
    <path id="Path_270" data-name="Path 270" d="M452.576,719.048a1.8,1.8,0,0,1-1.795-1.735l-.995-27.945,12.32-.649-.981,28.145a1.8,1.8,0,0,1-1.679,1.733l-6.747.447C452.658,719.047,452.617,719.048,452.576,719.048Z" transform="translate(-330.168 -403.351)" fill="#2f2e41"/>
    <path id="Path_271" data-name="Path 271" d="M446.26,581.225c-3.134,0-9.953-3.526-13.754-4.782-.569.455-3.692,2.791-7.338,2.364a8.552,8.552,0,0,1-5.887-3.785c-3.658-4.964,3.719-23.316,8.153-40.3,1.865-7.145,6.125-14.455,13.348-12.887h0a13.824,13.824,0,0,1,10.432,10.148c.835,3.4.117,7.4-.408,10.315a14.02,14.02,0,0,0-.375,2.989c.257,2.059-2.443,34.347-3.362,35.726C446.972,581.158,446.688,581.225,446.26,581.225Z" transform="translate(-314.932 -322.507)" fill="#6c63ff"/>
    <path id="Path_272" data-name="Path 272" d="M450.154,594.366a4.3,4.3,0,0,0,.377-6.576l.194-39.126-9.215,1.534,2.707,37.977a4.319,4.319,0,0,0,5.938,6.191Z" transform="translate(-326.163 -335.591)" fill="#ffb8b8"/>
    <path id="Path_273" data-name="Path 273" d="M451.167,563.859h-9.926a1.8,1.8,0,0,1-1.8-1.783l-.244-26.909a7.039,7.039,0,1,1,14.078.017l-.31,26.9A1.806,1.806,0,0,1,451.167,563.859Z" transform="translate(-325.045 -325.66)" fill="#6c63ff"/>
    <path id="Path_274" data-name="Path 274" d="M449.473,490.619a9.965,9.965,0,0,1-9.518-7.975,11.466,11.466,0,0,1,.368-5.2,13.978,13.978,0,0,1,19.169-8.779,5.6,5.6,0,0,1,2.939,2.526,2.608,2.608,0,0,1-1,3.417c-.787.353-1.776.18-2.474.686-1,.728-.745,2.276-.3,3.431s.955,2.554.2,3.54c-.7.919-2.1.89-3.2.544a8.6,8.6,0,0,0-3.338-.807,3.9,3.9,0,0,0-3.1,3.508,11.411,11.411,0,0,0,.82,4.941Z" transform="translate(-325.341 -296.283)" fill="#2f2e41"/>
    <path id="Path_275" data-name="Path 275" d="M529.4,612.465c6.38-1.442,13.608,3.548,13.832,10.248a6.5,6.5,0,0,1-1.939,5.145,4.772,4.772,0,0,1-4.526,1.075c-2.978-1-3.137-5.145-1.54-7.362,2.163-3,6.448-3.513,9.849-3.156a23.338,23.338,0,0,1,11.424,4.758c6.638,5,10.864,12.667,14.285,20.074a101.213,101.213,0,0,1,7.582,23.825q.289,1.549.53,3.107a.6.6,0,0,0,.744.408.615.615,0,0,0,.408-.744,102.548,102.548,0,0,0-7.692-26.017c-3.582-8.027-8.1-16.353-15.281-21.709a24.368,24.368,0,0,0-12.285-4.926c-3.768-.334-8.229.463-10.572,3.739-1.848,2.585-1.661,6.881,1.2,8.682a5.458,5.458,0,0,0,5.2.1,6.663,6.663,0,0,0,3.513-4.355c1.016-3.721-.527-7.746-3.17-10.405a13.324,13.324,0,0,0-9.378-3.944,11.809,11.809,0,0,0-2.521.3c-.753.17-.417,1.322.335,1.152Z" transform="translate(-368.317 -365.756)" fill="#ccc"/>
    <path id="Path_276" data-name="Path 276" d="M586,747.542l-3.965-6.769,4.889-2.863,3.965,6.769h0A2.833,2.833,0,0,1,586,747.542Z" transform="translate(-394.152 -427.15)" fill="#6c63ff"/>
    <circle id="Ellipse_62" data-name="Ellipse 62" cx="3.487" cy="3.487" r="3.487" transform="translate(175.253 299.349)" fill="#6c63ff"/>
    <path id="Path_277" data-name="Path 277" d="M615.718,747.542l-3.965-6.769,4.889-2.863,3.965,6.769a2.833,2.833,0,1,1-4.889,2.864Z" transform="translate(-408.53 -427.15)" fill="#6c63ff"/>
    <path id="Path_278" data-name="Path 278" d="M565.6,729.222a7.417,7.417,0,0,1,7.409-7.409h23.454a3.135,3.135,0,0,1,3.132,3.132v2.669a9.028,9.028,0,0,1-9.018,9.018H573.012A7.417,7.417,0,0,1,565.6,729.222Z" transform="translate(-386.202 -419.363)" fill="#3f3d56"/>
    <path id="Path_279" data-name="Path 279" d="M576.081,750.91v-7.845h5.666v7.845a2.833,2.833,0,0,1-5.666,0Z" transform="translate(-391.271 -429.645)" fill="#3f3d56"/>
    <path id="Path_280" data-name="Path 280" d="M607.93,750.91v-7.845H613.6v7.845a2.833,2.833,0,1,1-5.666,0Z" transform="translate(-406.68 -429.645)" fill="#3f3d56"/>
    <path id="Path_281" data-name="Path 281" d="M647.215,696.912a3.487,3.487,0,1,1,5.437,4.367l-5.731,7.136-5.437-4.366Z" transform="translate(-422.914 -406.685)" fill="#6c63ff"/>
    <path id="Path_282" data-name="Path 282" d="M625.325,717.659l4.591-5.717a6.723,6.723,0,0,1,9.44-1.031l1.435,1.152a8.015,8.015,0,0,1,1.229,11.256l-3.783,4.71a2.517,2.517,0,0,1-3.534.386l-8.992-7.222A2.517,2.517,0,0,1,625.325,717.659Z" transform="translate(-414.828 -413.374)" fill="#3f3d56"/>
    <path id="Path_283" data-name="Path 283" d="M647.9,695.649a2.4,2.4,0,0,1,3.738,3l-6.413,7.985-3.738-3Z" transform="translate(-422.914 -406.271)" fill="#3f3d56"/>
    <path id="Path_284" data-name="Path 284" d="M632.017,722.347l9.854,7.914A3.487,3.487,0,1,1,637.5,735.7l-9.854-7.914Z" transform="translate(-416.221 -419.621)" fill="#3f3d56"/>
    <ellipse id="Ellipse_63" data-name="Ellipse 63" cx="1.471" cy="0.817" rx="1.471" ry="0.817" transform="translate(224.412 315.924) rotate(-51.23)" fill="#6c63ff"/>
    <circle id="Ellipse_64" data-name="Ellipse 64" cx="7.342" cy="7.342" r="7.342" transform="translate(306.832 196.846)" fill="#2f2e41"/>
    <path id="Path_285" data-name="Path 285" d="M568.8,505.649h-3.215l-1.529-12.4H568.8Z" transform="translate(-272.896 -238.64)" fill="#a0616a"/>
    <path id="Path_286" data-name="Path 286" d="M558.91,515.492h6.2v3.9h-10.1A3.9,3.9,0,0,1,558.91,515.492Z" transform="translate(-268.518 -249.401)" fill="#2f2e41"/>
    <path id="Path_287" data-name="Path 287" d="M560.648,501.375l-3.067-.963,2.253-12.289,4.527,1.421Z" transform="translate(-269.764 -236.16)" fill="#a0616a"/>
    <path id="Path_288" data-name="Path 288" d="M3.9,0h6.2V3.9H0A3.9,3.9,0,0,1,3.9,0Z" transform="translate(282.175 261.52) rotate(17.423)" fill="#2f2e41"/>
    <path id="Path_289" data-name="Path 289" d="M780.282,615.793a1.171,1.171,0,0,1-.412-.075l-2.365-.887a1.184,1.184,0,0,1-.738-1.359c.6-2.677,2.625-11.793,3.736-16.682,1.318-5.8,20.544-6.877,21.361-6.92l.067,0,2.163,2.718c.781,2.512.534,4.471-.736,5.824-3.706,3.946-14.771,1.5-16.09,1.187l-5.881,15.438A1.183,1.183,0,0,1,780.282,615.793Z" transform="translate(-488.352 -355.525)" fill="#2f2e41"/>
    <path id="Path_290" data-name="Path 290" d="M786.886,619.349a1.171,1.171,0,0,1-.412-.075l-2.365-.887a1.184,1.184,0,0,1-.738-1.359c.6-2.677,2.625-11.792,3.736-16.682,1.318-5.8,20.544-6.877,21.361-6.92l.067,0,2.163,2.718c.781,2.512.534,4.471-.736,5.824-3.706,3.945-14.771,1.5-16.09,1.187l-5.881,15.438A1.183,1.183,0,0,1,786.886,619.349Z" transform="translate(-491.547 -357.246)" fill="#2f2e41"/>
    <path id="Path_291" data-name="Path 291" d="M772.315,569.465a2.756,2.756,0,0,1,.232.367l12.933,1.363,1.862-2.553,4.219,2.306-3.657,6.194L772.043,573.1a2.752,2.752,0,1,1,.272-3.634Z" transform="translate(-483.818 -345.128)" fill="#a0616a"/>
    <path id="Path_292" data-name="Path 292" d="M822.166,576.715a1.179,1.179,0,0,1-.537-.131c-2.586-1.315-7.622-3.592-12.292-4.069a1.152,1.152,0,0,1-.812-.459,1.185,1.185,0,0,1-.219-.921A72.3,72.3,0,0,0,809.57,558.1a6.45,6.45,0,0,1,4.873-6.416h0a20.965,20.965,0,0,1,2.6-.512,6.5,6.5,0,0,1,7.227,7.542c-.833,4.933-1.672,11.824-.943,16.634a1.182,1.182,0,0,1-.477,1.14,1.161,1.161,0,0,1-.683.225Z" transform="translate(-503.615 -336.78)" fill="#ccc"/>
    <path id="Path_293" data-name="Path 293" d="M806.972,566.138a1.18,1.18,0,0,1-.468-.1l-3.369-1.458a1.182,1.182,0,0,1-.614-1.552l2.6-6.016a3.016,3.016,0,0,1,5.535,2.4l-2.6,6.016a1.183,1.183,0,0,1-1.083.712Z" transform="translate(-500.778 -338.751)" fill="#ccc"/>
    <circle id="Ellipse_65" data-name="Ellipse 65" cx="6.441" cy="6.441" r="6.441" transform="translate(307.465 199.466)" fill="#a0616a"/>
    <path id="Path_294" data-name="Path 294" d="M813.474,524.481a23.23,23.23,0,0,0,10.05,3.311l-1.059-1.269a7.783,7.783,0,0,0,2.4.478,2.634,2.634,0,0,0,2.147-1,2.45,2.45,0,0,0,.164-2.263,4.639,4.639,0,0,0-1.46-1.825,8.69,8.69,0,0,0-8.088-1.446,5.194,5.194,0,0,0-2.416,1.55c-.611.753-1.786,1.424-1.473,2.342Z" transform="translate(-506.124 -321.739)" fill="#2f2e41"/>
    <path id="Path_295" data-name="Path 295" d="M806.359,513.473a19.8,19.8,0,0,0-7.2-4.657,10.132,10.132,0,0,0-5.456-.677,5.2,5.2,0,0,0-4.049,3.411,6.437,6.437,0,0,0,.658,4.407c.644,1.375,1.5,2.649,2.026,4.075a9.3,9.3,0,0,1-9.359,12.472,46.305,46.305,0,0,1,5.185,1.527c1.748.447,3.811.417,5.11-.835,1.374-1.325,1.4-3.479,1.335-5.387l-.3-8.508a10.809,10.809,0,0,1,.428-4.289,3.683,3.683,0,0,1,3.208-2.52,5.264,5.264,0,0,1,2.947,1.329,6.021,6.021,0,0,0,2.9,1.452c1.092.1,2.34-.711,2.258-1.8" transform="translate(-491.37 -315.929)" fill="#2f2e41"/>
    <path id="Path_296" data-name="Path 296" d="M802.5,584.414a2.886,2.886,0,1,1,1.112-5.55h0a2.767,2.767,0,0,1,.344.174l11.732-5.267.33-3.182,5.057-.135-.034,5.3a2.853,2.853,0,0,1-2.061,2.712l-13.72,3.905a2.687,2.687,0,0,1-.094.267,2.9,2.9,0,0,1-2.666,1.778Z" transform="translate(-499.419 -346.133)" fill="#a0616a"/>
    <path id="Path_297" data-name="Path 297" d="M834.932,565.643a1.179,1.179,0,0,1-.462.125l-3.664.225a1.181,1.181,0,0,1-1.25-1.105l-.4-6.543a3.016,3.016,0,1,1,6.02-.37l.4,6.543a1.183,1.183,0,0,1-.643,1.125Z" transform="translate(-513.708 -338.726)" fill="#ccc"/>
    <rect id="Rectangle_11" data-name="Rectangle 11" width="22.551" height="1.836" rx="0.918" transform="translate(314.179 238.942) rotate(180)" fill="#3f3d56"/>
    <path id="Path_298" data-name="Path 298" d="M767.268,581.836V568.987a1.706,1.706,0,0,1,1.7-1.7h23.338a1.706,1.706,0,0,1,1.7,1.7v12.849a1.706,1.706,0,0,1-1.7,1.7H768.972a1.706,1.706,0,0,1-1.7-1.7Z" transform="translate(-483.769 -344.599)" fill="#3f3d56"/>
    <circle id="Ellipse_66" data-name="Ellipse 66" cx="1.573" cy="1.573" r="1.573" transform="translate(295.299 229.24)" fill="#fff"/>
    <path id="Path_299" data-name="Path 299" d="M458.243,521.63h-5.678a2.065,2.065,0,1,1,0-4.13h5.678a2.065,2.065,0,0,1,0,4.13Z" transform="translate(-330.513 -320.514)" fill="#6c63ff"/>
  </g>
</svg>
