<svg xmlns="http://www.w3.org/2000/svg" width="357.73" height="276.707" viewBox="0 0 357.73 276.707">
  <g id="Group_6" data-name="Group 6" transform="translate(0.523 0.5)">
    <path id="Path_130" data-name="Path 130" d="M625.092,268.1c3.231-1.409-3.322-2.229-10.757-2.5s-16.429-.255-21.18-1.022c-4.6-.742-4.257-2.061-4.643-3.256s-2.153-2.42-9.323-2.686c-8.935-.331-23.669.943-30.414.178-6.294-.714-2.553-2.953-11.731-3.039-5.241-.049-11.993.689-17.825.867A64.975,64.975,0,0,1,506.851,256c-2.842-.466-4.822-1.056-8.021-1.467-8.4-1.08-24.831-.717-39.5.667s-27.238,3.652-34.328,5.9-9.05,4.459-7.4,6.334c1.055,1.2,3.753,2.318,10.3,2.8,12.244.9,34.045-.649,46.7.17,7.052.457,10.18,1.588,16.367,2.208,6.647.665,16.378.7,25.939.685,19.906-.033,40.322-.237,61.139-.612,8.7-.157,17.806-.36,27.058-1.107s18.689-2.187,20.642-3.538" transform="translate(-299.768 -181.517)" fill="#f2f2f2"/>
    <path id="Path_131" data-name="Path 131" d="M490.93,614.976a52.3,52.3,0,0,1-15.547,18.215c-9.843,7.39-21.559,11.83-33.286,15.577a366.09,366.09,0,0,1-205.691,4.652c-18.567-5.02-37.227-11.8-51.668-24.509a66.135,66.135,0,0,1-11.978-13.945c19.22-10.564,42.516-14.545,64.745-14.059,31.868.7,62.992,9.2,94.563,13.6a369.548,369.548,0,0,0,111.95-1.542c12.842-2.155,26.134-4.973,38.705-1.562a31.892,31.892,0,0,1,8.208,3.569Z" transform="translate(-137.344 -412.203)" fill="#f2f2f2"/>
    <path id="Path_132" data-name="Path 132" d="M947.421,783.659a10.31,10.31,0,0,1-2.56,3.966,21.809,21.809,0,0,1-6.1,3.916,72.17,72.17,0,0,1-40.067,6.3c-3.759-.494-7.583-1.331-10.738-3.435A13.042,13.042,0,0,1,885.255,792a25.644,25.644,0,0,1,12.282-4.444c6.245-.7,12.549.147,18.833.18A72.852,72.852,0,0,0,938.2,784.5c2.453-.758,4.976-1.657,7.522-1.32A6.287,6.287,0,0,1,947.421,783.659Z" transform="translate(-611.055 -533.365)" fill="#f2f2f2"/>
    <path id="Path_133" data-name="Path 133" d="M319.4,773.3a10.309,10.309,0,0,1-3.724,2.9,21.811,21.811,0,0,1-7.045,1.69,72.171,72.171,0,0,1-39.907-7.246c-3.387-1.7-6.722-3.754-9.008-6.779a13.036,13.036,0,0,1-1.761-3.167,25.644,25.644,0,0,1,13.06-.152c6.127,1.4,11.8,4.271,17.723,6.371a72.853,72.853,0,0,0,21.681,4.135c2.565.092,5.244.074,7.536,1.231A6.283,6.283,0,0,1,319.4,773.3Z" transform="translate(-193.984 -517.856)" fill="#f2f2f2"/>
    <path id="Path_134" data-name="Path 134" d="M599.589,826.587a10.31,10.31,0,0,1-3.065,3.591,21.807,21.807,0,0,1-6.562,3.071,72.169,72.169,0,0,1-40.549.917c-3.66-.99-7.339-2.327-10.186-4.831a13.039,13.039,0,0,1-2.361-2.749,25.644,25.644,0,0,1,12.764-2.771c6.282.137,12.418,1.814,18.642,2.682a72.846,72.846,0,0,0,22.069-.3c2.532-.425,5.152-.98,7.63-.308a6.287,6.287,0,0,1,1.618.7Z" transform="translate(-379.424 -560.426)" fill="#f2f2f2"/>
    <path id="Path_135" data-name="Path 135" d="M598.753,506.378l-9.457-4.172v-3.587l3.37-.019a2.5,2.5,0,0,0,2.361-1.712l2.367-7.1a2.5,2.5,0,0,0-2.375-3.295H589.3v-3.338h7.185a2.5,2.5,0,0,0,2.44-1.942l1.63-7.093a2.5,2.5,0,0,0-2.44-3.064H589.3v-.834a1.669,1.669,0,0,0-3.338,0v.834h-59.1v-.834a1.669,1.669,0,0,0-3.338,0v.834h-7.008a2.5,2.5,0,0,0-2.44,3.064l1.63,7.093a2.5,2.5,0,0,0,2.44,1.942h5.378v3.338H519.6a2.5,2.5,0,0,0-2.383,3.271l2.417,7.5a2.5,2.5,0,0,0,2.4,1.735l1.485-.008v3.217l-7.649,4.172a2.5,2.5,0,0,0-2.5,2.5h0a2.5,2.5,0,0,0,2.5,2.5h7.649v18.357a1.669,1.669,0,1,0,3.338,0V511.385h59.1v18.357a1.669,1.669,0,1,0,3.338,0V511.385h9.457a2.5,2.5,0,0,0,2.5-2.5h0a2.5,2.5,0,0,0-2.5-2.5Zm-71.9-23.224h59.1v3.338h-59.1Zm0,19.052V498.97l59.1-.332v3.568Z" transform="translate(-363.799 -324.231)" fill="#f2f2f2"/>
    <path id="Path_136" data-name="Path 136" d="M466.9,395.047a7.356,7.356,0,0,1,.112-7.624,12.346,12.346,0,0,0,4.918,6.9c.929.633,2.028,1.239,2.346,2.317a2.76,2.76,0,0,1-.288,2.026,8.2,8.2,0,0,1-1.272,1.661l-.045.169A14.965,14.965,0,0,1,466.9,395.047Z" transform="translate(-332.238 -270.292)" fill="#ccc"/>
    <path id="Path_137" data-name="Path 137" d="M628.9,409.047a7.356,7.356,0,0,1,.112-7.624,12.346,12.346,0,0,0,4.918,6.9c.929.632,2.028,1.239,2.346,2.317a2.76,2.76,0,0,1-.288,2.026,8.2,8.2,0,0,1-1.272,1.661l-.045.169A14.964,14.964,0,0,1,628.9,409.047Z" transform="translate(-439.945 -279.6)" fill="#ccc"/>
    <path id="Path_138" data-name="Path 138" d="M897.4,671.827a7.357,7.357,0,0,1-5.235-5.544,12.346,12.346,0,0,0,8.339,1.52c1.107-.194,2.318-.525,3.3.026a2.76,2.76,0,0,1,1.206,1.653,8.2,8.2,0,0,1,.246,2.077l.085.152A14.965,14.965,0,0,1,897.4,671.827Z" transform="translate(-615.651 -455.695)" fill="#ccc"/>
    <path id="Path_139" data-name="Path 139" d="M911.4,690.827a7.356,7.356,0,0,1-5.235-5.544,12.345,12.345,0,0,0,8.339,1.52c1.107-.194,2.318-.525,3.3.026a2.76,2.76,0,0,1,1.206,1.653,8.187,8.187,0,0,1,.246,2.077l.085.152A14.967,14.967,0,0,1,911.4,690.827Z" transform="translate(-624.959 -468.327)" fill="#ccc"/>
    <path id="Path_140" data-name="Path 140" d="M867.4,680.827a7.357,7.357,0,0,1-5.235-5.544,12.346,12.346,0,0,0,8.339,1.52c1.107-.194,2.318-.525,3.3.026a2.76,2.76,0,0,1,1.206,1.653,8.2,8.2,0,0,1,.246,2.077l.085.152A14.968,14.968,0,0,1,867.4,680.827Z" transform="translate(-595.705 -461.679)" fill="#ccc"/>
    <path id="Path_141" data-name="Path 141" d="M901.4,658.827a7.356,7.356,0,0,1-5.235-5.544,12.346,12.346,0,0,0,8.339,1.52c1.107-.194,2.318-.526,3.3.026a2.76,2.76,0,0,1,1.206,1.653,8.2,8.2,0,0,1,.246,2.077l.085.152A14.966,14.966,0,0,1,901.4,658.827Z" transform="translate(-618.311 -447.052)" fill="#ccc"/>
    <path id="Path_142" data-name="Path 142" d="M354.856,670.448a7.356,7.356,0,0,1-4.663-6.033,12.346,12.346,0,0,0,8.148,2.335c1.121-.084,2.358-.294,3.279.351a2.759,2.759,0,0,1,1.037,1.764,8.2,8.2,0,0,1,.04,2.091l.07.16A14.967,14.967,0,0,1,354.856,670.448Z" transform="translate(-255.312 -454.453)" fill="#ccc"/>
    <path id="Path_143" data-name="Path 143" d="M413.9,568.047a7.357,7.357,0,0,1,.112-7.624,12.346,12.346,0,0,0,4.918,6.9c.929.632,2.028,1.239,2.346,2.317a2.76,2.76,0,0,1-.288,2.026,8.2,8.2,0,0,1-1.272,1.661l-.045.169A14.965,14.965,0,0,1,413.9,568.047Z" transform="translate(-297 -385.313)" fill="#ccc"/>
    <path id="Path_144" data-name="Path 144" d="M411.531,636.389a7.357,7.357,0,0,1-5.06-5.7,12.346,12.346,0,0,0,8.288,1.778c1.112-.16,2.333-.453,3.295.128a2.76,2.76,0,0,1,1.154,1.689,8.2,8.2,0,0,1,.181,2.084l.081.155A14.964,14.964,0,0,1,411.531,636.389Z" transform="translate(-292.729 -432.028)" fill="#ccc"/>
    <path id="Path_145" data-name="Path 145" d="M425.531,611.389a7.357,7.357,0,0,1-5.06-5.7,12.346,12.346,0,0,0,8.288,1.778c1.112-.16,2.333-.453,3.295.128a2.76,2.76,0,0,1,1.154,1.69,8.2,8.2,0,0,1,.181,2.084l.081.155A14.965,14.965,0,0,1,425.531,611.389Z" transform="translate(-302.037 -415.406)" fill="#ccc"/>
    <path id="Path_146" data-name="Path 146" d="M397.531,620.389a7.357,7.357,0,0,1-5.06-5.7,12.346,12.346,0,0,0,8.288,1.778c1.112-.16,2.333-.453,3.295.128a2.76,2.76,0,0,1,1.154,1.689,8.2,8.2,0,0,1,.181,2.084l.081.155A14.964,14.964,0,0,1,397.531,620.389Z" transform="translate(-283.421 -421.39)" fill="#ccc"/>
    <path id="Path_147" data-name="Path 147" d="M91.714,195.326l-.236,0a17.721,17.721,0,0,1-5.785-34.377,2.635,2.635,0,0,0,1.757-2.511v-.063a17.751,17.751,0,0,1,.5-4.2,2.584,2.584,0,0,0-.709-2.5,29.321,29.321,0,0,1,20.064-50.7h.143a29.065,29.065,0,0,1,21.146,9.161,14.659,14.659,0,0,0,10.59,4.577l.057.167V114.7h.116a29.472,29.472,0,0,1,26.51,16.775,1.624,1.624,0,0,0,1.45.935l.2,0a29.322,29.322,0,1,1-27.408,41.4.816.816,0,0,0-.745-.472,29.552,29.552,0,0,1-6-.613,36.337,36.337,0,0,0-21.412,2.008q-.342.142-.69.27a2.744,2.744,0,0,0-1.809,2.56v.035a17.721,17.721,0,0,1-17.718,17.721h-.027Z" transform="translate(-71.692 -79.837)" fill="#6c63ff" stroke="#272424" stroke-width="1"/>
    <path id="Path_148" data-name="Path 148" d="M184.955,324.952a6.243,6.243,0,0,1-5.176-2.722,6.332,6.332,0,0,1-.535-6.3,47.56,47.56,0,0,0,3.812-25.416c-2.472-22.577-25.017-57.815-25.245-58.169l-10.351-13.17a5.516,5.516,0,0,1,.874-7.94,5.432,5.432,0,0,1,7.844.6,7.6,7.6,0,0,1,1.627,2.635c.7-4.6,3.428-25.373-1.394-42.477-1.509-5.351,1.844-9.051,5.6-10.225,3.685-1.152,8.46-.037,10.238,5.133a23.426,23.426,0,0,1,.977,10.073c-.98,9.47-1.72,18.3-2.2,26.235a4.279,4.279,0,0,0,7.613,2.932l8.1-10.115a14.006,14.006,0,0,1,17.3-3.862c4.623,2.232,9.377,7.654,7.565,15.591a8.953,8.953,0,0,1-2.323,4.5q-.347.341-.7.682a36.053,36.053,0,0,0-7.992,40.848c7.236,15.978,12.025,29.683,14.233,40.735,3.033,15.182,1.032,24.871-5.948,28.8l-.064.019-23.4,1.6-.01-.152.01.152C185.252,324.947,185.1,324.952,184.955,324.952Z" transform="translate(-119.653 -119.986)" fill="#e6e6e6"/>
    <path id="Path_149" data-name="Path 149" d="M84.764,132.281l-.236,0A17.721,17.721,0,0,1,78.743,97.9,2.635,2.635,0,0,0,80.5,95.391v-.063a17.742,17.742,0,0,1,.5-4.2,2.585,2.585,0,0,0-.709-2.5,29.321,29.321,0,0,1,20.064-50.7h.143a29.066,29.066,0,0,1,21.146,9.161,14.659,14.659,0,0,0,10.59,4.577l.057.167v-.168h.117a29.473,29.473,0,0,1,26.51,16.775,1.624,1.624,0,0,0,1.45.935l.2,0a29.322,29.322,0,1,1-27.408,41.4.816.816,0,0,0-.745-.472,29.557,29.557,0,0,1-6-.613,36.331,36.331,0,0,0-21.411,2.008q-.342.142-.691.27a2.744,2.744,0,0,0-1.809,2.56v.035a17.721,17.721,0,0,1-17.718,17.721h-.027Z" transform="translate(-67.071 -37.92)" fill="#6c63ff" stroke="#261e1e" stroke-width="1"/>
    <path id="Path_150" data-name="Path 150" d="M204.985,175l.163-.024a12.429,12.429,0,0,1,7.686,23.21,1.848,1.848,0,0,0-.949,1.928l.007.044a12.439,12.439,0,0,1,.1,2.966,1.813,1.813,0,0,0,.758,1.659,20.564,20.564,0,0,1-8.486,37.29l-.1.015A20.385,20.385,0,0,1,188.529,238a10.281,10.281,0,0,0-7.83-2.04l-.057-.11.018.116-.081.013a20.67,20.67,0,0,1-20.169-8.793,1.139,1.139,0,0,0-1.1-.493l-.14.019a20.565,20.565,0,1,1,14.571-31.628.572.572,0,0,0,.567.248,20.729,20.729,0,0,1,4.224-.217,25.48,25.48,0,0,0,14.626-3.682q.222-.135.45-.261a1.925,1.925,0,0,0,.98-1.968l0-.024A12.428,12.428,0,0,1,204.966,175h0Z" transform="translate(-112.866 -128.961)" fill="#6c63ff"/>
    <path id="Path_151" data-name="Path 151" d="M917.226,346.555c-4.737,0-12.152,12.748-12.228,12.88-6.832,8.719-13.858,30.8-17.44,43.186a10.572,10.572,0,0,0,8.083,13.309,69.584,69.584,0,0,1,18.917,6.315c11.993,6.381,26.214.348,27.655-.295l-4.72-24.389c-5.242-17.408-16.147-50.455-19.922-50.982A2.5,2.5,0,0,0,917.226,346.555Z" transform="translate(-612.308 -243.12)" fill="#2f2e41"/>
    <path id="Path_152" data-name="Path 152" d="M942.31,397.189s-15.182-50.426-20.062-51.108S911.5,359.158,911.5,359.158c-3.078,12.719-10.759,30.211-16.335,42.025a10.735,10.735,0,0,0,7.349,15.057,67.634,67.634,0,0,1,16.615,5.82c12.808,6.814,27.923-.345,27.923-.345Z" transform="translate(-616.962 -242.789)" opacity="0.1"/>
    <path id="Path_153" data-name="Path 153" d="M893.415,420.934l-24.465-3.016,5.027-22.119,19.438.67Z" transform="translate(-577.736 -263.152)" fill="#9e616a"/>
    <path id="Path_3128" data-name="Path 3128" d="M958.656,750.471l-4.9-.8.735-19.29,7.236,1.173Z" transform="translate(-656.596 -498.315)" fill="#9e616a"/>
    <path id="Path_3130" data-name="Path 3130" d="M1009.2,723.875l-4.435,2.237L993.02,709.067l6.545-3.3Z" transform="translate(-682.703 -481.945)" fill="#9e616a"/>
    <path id="Path_3132" data-name="Path 3132" d="M952.16,566.723l-20.42-52.068c-7.308-19.962-.779-33.721-.711-33.857l.034-.067.07-.025c.839,3.264,19.851,3.041,24.208-1.986a21.825,21.825,0,0,1,6.653,13.176,47.41,47.41,0,0,1-1.688,19.2l-8.043,27.267,9.951,22.418Z" transform="translate(-639.66 -330.991)" fill="#2f2e41"/>
    <path id="Path_3133" data-name="Path 3133" d="M955.525,644.94l-7.373,37.387,9.82,1.852,6.178-32.362Z" transform="translate(-652.872 -441.505)" fill="#2f2e41"/>
    <path id="Path_154" data-name="Path 154" d="M944.093,770.794l-.6-.037-5.7-.342-.8-.047v3.046l-6.756,4.665a1.9,1.9,0,0,0,1.083,3.465h8.459l1.458-3.01.57,3.01h3.187Z" transform="translate(-640.412 -524.898)" fill="#2f2e41"/>
    <path id="Path_155" data-name="Path 155" d="M1031.611,764.495l-6.585-8.546-.339.191-4.431,2.5-1.428.8,1.649,2.557-3.144,7.584a1.9,1.9,0,0,0,2.788,2.326l7.108-4.588-.409-3.321,2.111,2.222Z" transform="translate(-698.773 -515.31)" fill="#2f2e41"/>
    <circle id="Ellipse_32" data-name="Ellipse 32" cx="12.189" cy="12.189" r="12.189" transform="translate(301.9 74.41)" fill="#2f2e41"/>
    <path id="Path_156" data-name="Path 156" d="M814.054,424.33a4.961,4.961,0,0,1,2.621-9.5l15.639-3.007,5.868,6.971-17.416,2.041a4.934,4.934,0,0,1-6.712,3.493Z" transform="translate(-561.663 -286.516)" fill="#9e616a"/>
    <path id="Path_157" data-name="Path 157" d="M814.449,327.449l-19.41,11.906-17.511.518-5.254-7.64,19.088-3.51,26.287-20.065Z" transform="translate(-513.46 -205.216)" fill="#2f2e41"/>
    <path id="Path_158" data-name="Path 158" d="M943.605,351.288c-4.74,4.74-.339,9.819-.339,9.819L937.849,373.3l21.331,5.756,7.455-33.31-5.078-5.417c-1.081-.036-.706-3.422-1.569-3.455-3.148-.12-4.93-.22-5.938-.295-1.314-.1-2.656,3.2-2.656,3.2C949.613,341.517,943.605,351.288,943.605,351.288Z" transform="translate(-646.022 -236.484)" fill="#6c63ff"/>
    <path id="Path_159" data-name="Path 159" d="M1001.137,410.406a23.531,23.531,0,0,1-3.117-3.127,46.915,46.915,0,0,1-4.625-6.616,57.946,57.946,0,0,1-4.561-9.856c0-.007,0-.013-.007-.02q-.568-1.6-1.052-3.3a.162.162,0,0,0-.013-.037,55.1,55.1,0,0,1-1.32-5.811c-1.354-7.933,1.273-15.158,3.717-19.823a8.7,8.7,0,0,0,.533-1.223,9.073,9.073,0,0,0-3.164-10.4l-.117-.087a9.1,9.1,0,0,0-12.769,1.971.182.182,0,0,0-.023.03c-4.176,5.818-8.11,14.418-6.411,25.045a35.85,35.85,0,0,0,2,7.316q.422,1.091.925,2.2,2.056,4.524,4.035,8.492,1.734,3.484,3.392,6.539a113.959,113.959,0,0,0,9.622,15.269c3.211,4.122,5.758,6.2,7.35,6.2a1.494,1.494,0,0,0,.479-.074l.017-.007a10.012,10.012,0,0,0,4.035-3.348,12.252,12.252,0,0,0,2.433-5.064A4.27,4.27,0,0,0,1001.137,410.406Z" transform="translate(-665.936 -244.296)" fill="#2f2e41"/>
    <circle id="Ellipse_33" data-name="Ellipse 33" cx="8.973" cy="8.973" r="8.973" transform="translate(298.234 86.149) rotate(-28.663)" fill="#9e616a"/>
    <path id="Path_160" data-name="Path 160" d="M958.653,282.034h12.956l.133-1.86.664,1.86h2l.263-3.687,1.317,3.687h3.86v-.183a9.692,9.692,0,0,0-9.681-9.681h-1.827a9.692,9.692,0,0,0-9.681,9.681Z" transform="translate(-659.854 -193.664)" fill="#2f2e41"/>
    <path id="Path_161" data-name="Path 161" d="M1056.5,505.2a4.961,4.961,0,0,1-9.624-2.114l-3.833-15.457,6.65-6.229,2.962,17.283a4.935,4.935,0,0,1,3.844,6.517Z" transform="translate(-715.965 -332.771)" fill="#9e616a"/>
    <path id="Path_162" data-name="Path 162" d="M933.753,331.406l13.978,48.862-7.571,4.489-21.942-52.7Z" transform="translate(-610.491 -220.339)" fill="#2f2e41"/>
    <path id="Path_163" data-name="Path 163" d="M1043.061,258.191c-2.672-1.853-4.334-4.846-5.477-7.891s-1.863-6.244-3.158-9.227a25.894,25.894,0,0,0-6.922-9.351,13.935,13.935,0,0,0-6.618-3.411,7.337,7.337,0,0,0-6.832,2.266c-1.587,1.949-1.583,5.175.338,6.795a1.5,1.5,0,0,0-2.184.213,1.966,1.966,0,0,0,.117,2.32,2.429,2.429,0,0,0,.694.594,6.649,6.649,0,0,0,2.916,3.139,4.215,4.215,0,0,0,4.852-.672,3.035,3.035,0,0,0-.513-4.532,6.456,6.456,0,0,1,6.229,2.919,13.118,13.118,0,0,1,1.96,6.91c.114,2.424-.089,4.858.116,7.276a11.583,11.583,0,0,0,2.462,6.719c2.616,2.994,7.217,3.552,11.023,2.4s7.011-3.69,10.113-6.178C1049.6,260.463,1045.731,260.044,1043.061,258.191Z" transform="translate(-695.245 -164.431)" fill="#2f2e41"/>
    <path id="Path_164" data-name="Path 164" d="M787.2,246.544a5.083,5.083,0,0,0-1.574,5.587,5.942,5.942,0,0,0,4.741,4.231,9.082,9.082,0,0,0,7.088-2.053c2.182-1.742,3.447-4.283,4.7-6.711,1.7-3.289,3.57-6.5,5.368-9.736q3.008-5.416,6.014-10.833,6.757-12.185,13.45-24.406t13.218-24.551c3.529-6.691,7.024-13.406,10.294-20.229q.482-1.006.955-2.016a1.015,1.015,0,0,0-.579-1.3,1.026,1.026,0,0,0-1.3.579c-2.975,6.354-6.195,12.6-9.445,18.812q-6.113,11.689-12.447,23.26-6.547,12.032-13.193,24.01-5.752,10.391-11.526,20.77c-.935,1.685-1.883,3.362-2.767,5.074-1.143,2.212-2.332,4.527-4.405,6.012-1.761,1.261-4.257,1.929-6.3.954a4.041,4.041,0,0,1-2.086-4.107,2.575,2.575,0,0,1,1.064-1.8c1.044-.77-.238-2.319-1.278-1.553Z" transform="translate(-544.649 -115.408)" fill="#2f2e41"/>
    <path id="Path_165" data-name="Path 165" d="M902.152,133.112l-.119-.014c-4.568-.561-9.093-1.237-13.451-2.011-3.1-.551-6.129-1.15-9-1.781-2.421-.529-4.813-1.1-7.112-1.685-2.563-.653-5.106-1.355-7.558-2.089-1.024-.3-2.065-.62-3.1-.948-1.91-.606-3.75-1.223-5.471-1.832-1.67-.584-3.353-1.207-5-1.851a.89.89,0,0,1-.1-.038c-3.345-1.3-6.629-2.7-9.758-4.166q-.909-.422-1.808-.857a128.852,128.852,0,0,1-44.916-35.176l-.067-.083.047-.1a57.422,57.422,0,0,1,72.045-28.5c1.651.631,3.276,1.336,4.831,2.1l4.185,2.046A57.442,57.442,0,0,1,902.2,133Z" transform="translate(-550.841 -44.766)" fill="#6c63ff"/>
    <path id="Path_166" data-name="Path 166" d="M818.223,99.874A228.551,228.551,0,0,1,868.839,71.52q7.578-3.058,15.361-5.567c.614-.2.189-1.11-.421-.913a229.208,229.208,0,0,0-52.731,24.8q-6.895,4.386-13.463,9.257c-.521.386.12,1.161.639.776Z" transform="translate(-565.935 -55.933)" fill="#3f3d56"/>
    <path id="Path_167" data-name="Path 167" d="M1046.487,77.673a.488.488,0,0,0,.015.577,67.7,67.7,0,0,1,7.182,12.621,71.288,71.288,0,0,1,4.4,13.842,73.111,73.111,0,0,1,1.573,14.45,72.36,72.36,0,0,1-1.325,14.471,67.887,67.887,0,0,1-3.479,11.935q-.383.973-.8,1.933-.358.829-.739,1.645c-.273.59.669.944.942.361.333-.722.656-1.448.959-2.183a69.02,69.02,0,0,0,3.736-11.769,72.251,72.251,0,0,0,1.7-14.62,74.8,74.8,0,0,0-1.24-14.69,72.99,72.99,0,0,0-4.122-14.135,68.8,68.8,0,0,0-6.978-13.022c-.127-.187-.256-.375-.387-.559Z" transform="translate(-718.193 -64.35)" fill="#3f3d56"/>
    <path id="Path_168" data-name="Path 168" d="M895.937,131.5l16.133-19.439L928.2,92.62l9.081-10.943c.414-.5-.4-1.085-.815-.589l-16.133,19.439L904.2,119.967l-9.081,10.943c-.414.5.4,1.085.815.589Z" transform="translate(-617.539 -66.496)" fill="#3f3d56"/>
    <path id="Path_169" data-name="Path 169" d="M1001.115,154.777l4.586-23.8,4.57-23.723,2.578-13.38c.122-.635-.879-.728-1-.1l-4.586,23.8-4.57,23.723-2.577,13.38c-.122.635.879.728,1,.1Z" transform="translate(-687.414 -74.77)" fill="#3f3d56"/>
    <path id="Path_170" data-name="Path 170" d="M1023.6,67.8a8.714,8.714,0,0,1-16.276-5.1,8.616,8.616,0,0,1,.744-2.773q2.43.928,4.817,2.091l4.185,2.046a57.686,57.686,0,0,1,6.53,3.735Z" transform="translate(-692.185 -52.553)" fill="#3f3d56"/>
    <path id="Path_171" data-name="Path 171" d="M448.386,98.53a59.307,59.307,0,0,0,6.952,15.475q1.3,2.046,2.769,3.977c.386.509,1.259.009.868-.507a58.374,58.374,0,0,1-8.124-14.68q-.841-2.235-1.5-4.532a.5.5,0,0,0-.97.267Z" transform="translate(-320.588 -77.805)" fill="#f2f2f2"/>
    <path id="Path_172" data-name="Path 172" d="M537.139,163.281l6.107,10.624a.5.5,0,0,0,.868-.507l-6.107-10.624a.5.5,0,0,0-.868.507Z" transform="translate(-379.565 -120.775)" fill="#f2f2f2"/>
    <path id="Path_173" data-name="Path 173" d="M577.815,117.924l4.974,10.624c.274.586,1.141.076.868-.507l-4.974-10.624C578.409,116.831,577.542,117.341,577.815,117.924Z" transform="translate(-406.614 -90.602)" fill="#f2f2f2"/>
    <path id="Path_174" data-name="Path 174" d="M725.387,139.531a59.306,59.306,0,0,0,6.952,15.475q1.3,2.046,2.769,3.977c.386.509,1.259.009.868-.507a58.375,58.375,0,0,1-8.124-14.68q-.841-2.235-1.5-4.532a.5.5,0,0,0-.969.267Z" transform="translate(-504.755 -105.066)" fill="#f2f2f2"/>
    <path id="Path_175" data-name="Path 175" d="M814.139,204.281l6.107,10.624a.5.5,0,0,0,.868-.507l-6.107-10.624a.5.5,0,0,0-.868.507Z" transform="translate(-563.732 -148.034)" fill="#f2f2f2"/>
    <path id="Path_176" data-name="Path 176" d="M854.815,158.924l4.974,10.624c.274.586,1.141.076.868-.507l-4.974-10.624C855.409,157.831,854.542,158.341,854.815,158.924Z" transform="translate(-590.781 -117.862)" fill="#f2f2f2"/>
    <path id="Path_177" data-name="Path 177" d="M680.386,333.531a59.313,59.313,0,0,0,6.952,15.475q1.3,2.046,2.769,3.977c.386.509,1.259.009.868-.507a58.374,58.374,0,0,1-8.123-14.68q-.841-2.235-1.5-4.532a.5.5,0,0,0-.97.267Z" transform="translate(-474.836 -234.048)" fill="#f2f2f2"/>
    <path id="Path_178" data-name="Path 178" d="M769.14,398.282l6.107,10.624a.5.5,0,0,0,.868-.507l-6.107-10.624a.5.5,0,0,0-.868.507Z" transform="translate(-533.814 -277.018)" fill="#f2f2f2"/>
    <path id="Path_179" data-name="Path 179" d="M809.815,352.924l4.974,10.624c.274.586,1.141.076.868-.507l-4.974-10.624C810.409,351.831,809.542,352.341,809.815,352.924Z" transform="translate(-560.862 -246.845)" fill="#f2f2f2"/>
    <path id="Path_180" data-name="Path 180" d="M377.387,414.531a59.306,59.306,0,0,0,6.952,15.475q1.3,2.046,2.769,3.977c.386.509,1.259.009.868-.507a58.372,58.372,0,0,1-8.124-14.68q-.841-2.235-1.5-4.532a.5.5,0,0,0-.969.267Z" transform="translate(-273.383 -287.902)" fill="#f2f2f2"/>
    <path id="Path_181" data-name="Path 181" d="M466.139,479.281l6.107,10.624a.5.5,0,0,0,.868-.507l-6.107-10.624a.5.5,0,0,0-.868.507Z" transform="translate(-332.36 -330.871)" fill="#f2f2f2"/>
    <path id="Path_182" data-name="Path 182" d="M506.815,433.924l4.974,10.624c.274.586,1.141.076.868-.507l-4.974-10.624C507.409,432.831,506.542,433.341,506.815,433.924Z" transform="translate(-359.409 -300.699)" fill="#f2f2f2"/>
    <path id="Path_183" data-name="Path 183" d="M761.387,515.531a59.308,59.308,0,0,0,6.952,15.475q1.3,2.046,2.769,3.977c.386.509,1.259.009.868-.508a58.372,58.372,0,0,1-8.123-14.68q-.841-2.235-1.5-4.532a.5.5,0,0,0-.969.267Z" transform="translate(-528.69 -355.053)" fill="#f2f2f2"/>
    <path id="Path_184" data-name="Path 184" d="M850.139,580.281l6.107,10.624a.5.5,0,0,0,.868-.507l-6.107-10.624a.5.5,0,0,0-.868.507Z" transform="translate(-587.667 -398.022)" fill="#f2f2f2"/>
    <path id="Path_185" data-name="Path 185" d="M890.815,534.924l4.974,10.624c.274.586,1.141.076.868-.507l-4.974-10.624C891.409,533.831,890.542,534.341,890.815,534.924Z" transform="translate(-614.716 -367.85)" fill="#f2f2f2"/>
    <path id="Path_186" data-name="Path 186" d="M926.387,408.531a59.308,59.308,0,0,0,6.952,15.475q1.3,2.046,2.769,3.977c.386.509,1.259.009.868-.507a58.375,58.375,0,0,1-8.124-14.68q-.841-2.235-1.5-4.532a.5.5,0,0,0-.969.267Z" transform="translate(-638.392 -283.914)" fill="#f2f2f2"/>
    <path id="Path_187" data-name="Path 187" d="M1015.14,473.281l6.107,10.624a.5.5,0,0,0,.868-.507l-6.107-10.624a.5.5,0,0,0-.868.507Z" transform="translate(-697.37 -326.882)" fill="#f2f2f2"/>
    <path id="Path_188" data-name="Path 188" d="M1055.816,427.924l4.974,10.624c.274.586,1.141.076.868-.507l-4.974-10.624C1056.41,426.831,1055.543,427.341,1055.816,427.924Z" transform="translate(-724.419 -296.71)" fill="#f2f2f2"/>
    <path id="Path_189" data-name="Path 189" d="M964.387,182.531a59.312,59.312,0,0,0,6.952,15.475q1.3,2.046,2.769,3.977c.386.509,1.26.009.868-.507a58.373,58.373,0,0,1-8.124-14.68q-.841-2.235-1.5-4.532a.5.5,0,0,0-.97.267Z" transform="translate(-663.657 -133.655)" fill="#f2f2f2"/>
    <path id="Path_190" data-name="Path 190" d="M1053.14,247.281l6.107,10.624a.5.5,0,0,0,.868-.507l-6.107-10.624a.5.5,0,0,0-.868.507Z" transform="translate(-722.635 -176.623)" fill="#f2f2f2"/>
    <path id="Path_191" data-name="Path 191" d="M1093.816,201.924l4.974,10.624c.274.586,1.141.076.868-.507l-4.974-10.624C1094.41,200.831,1093.543,201.341,1093.816,201.924Z" transform="translate(-749.684 -146.451)" fill="#f2f2f2"/>
    <path id="Path_192" data-name="Path 192" d="M154.387,102.531a59.308,59.308,0,0,0,6.952,15.475q1.3,2.046,2.769,3.977c.386.509,1.259.009.868-.507a58.375,58.375,0,0,1-8.124-14.68q-.841-2.235-1.5-4.532a.5.5,0,0,0-.969.267Z" transform="translate(-125.119 -80.465)" fill="#f2f2f2"/>
    <path id="Path_193" data-name="Path 193" d="M243.139,167.281l6.107,10.624a.5.5,0,0,0,.868-.507l-6.107-10.624a.5.5,0,0,0-.868.507Z" transform="translate(-184.096 -123.434)" fill="#f2f2f2"/>
    <path id="Path_194" data-name="Path 194" d="M283.815,121.924l4.974,10.624c.274.586,1.141.076.868-.507l-4.974-10.624C284.409,120.831,283.542,121.341,283.815,121.924Z" transform="translate(-211.145 -93.262)" fill="#f2f2f2"/>
    <path id="Path_195" data-name="Path 195" d="M217.387,229.531a59.307,59.307,0,0,0,6.952,15.475q1.3,2.046,2.769,3.977c.386.509,1.259.009.868-.507a58.375,58.375,0,0,1-8.124-14.68q-.841-2.235-1.5-4.532a.5.5,0,0,0-.969.267Z" transform="translate(-167.005 -164.903)" fill="#f2f2f2"/>
    <path id="Path_196" data-name="Path 196" d="M306.139,294.281l6.107,10.624a.5.5,0,0,0,.868-.507l-6.107-10.624a.5.5,0,0,0-.868.507Z" transform="translate(-225.982 -207.871)" fill="#f2f2f2"/>
    <path id="Path_197" data-name="Path 197" d="M346.815,248.924l4.974,10.624c.274.585,1.141.076.868-.507l-4.974-10.624C347.409,247.831,346.542,248.341,346.815,248.924Z" transform="translate(-253.031 -177.699)" fill="#f2f2f2"/>
    <path id="Path_198" data-name="Path 198" d="M72.387,458.531a59.308,59.308,0,0,0,6.952,15.475q1.3,2.046,2.769,3.977c.386.509,1.259.009.868-.507a58.375,58.375,0,0,1-8.124-14.68q-.841-2.235-1.5-4.532a.5.5,0,0,0-.969.267Z" transform="translate(-70.6 -317.156)" fill="#f2f2f2"/>
    <path id="Path_199" data-name="Path 199" d="M161.139,523.281l6.107,10.624a.5.5,0,0,0,.868-.507l-6.107-10.624a.5.5,0,0,0-.868.507Z" transform="translate(-129.577 -360.125)" fill="#f2f2f2"/>
    <path id="Path_200" data-name="Path 200" d="M201.815,477.924l4.974,10.624c.274.586,1.141.076.868-.507l-4.974-10.624C202.409,476.831,201.542,477.341,201.815,477.924Z" transform="translate(-156.626 -329.953)" fill="#f2f2f2"/>
    <path id="Path_201" data-name="Path 201" d="M474.387,279.531a59.307,59.307,0,0,0,6.952,15.475q1.3,2.046,2.769,3.977c.386.509,1.259.009.868-.507a58.374,58.374,0,0,1-8.124-14.68q-.841-2.235-1.5-4.532a.5.5,0,0,0-.969.267Z" transform="translate(-337.874 -198.146)" fill="#f2f2f2"/>
    <path id="Path_202" data-name="Path 202" d="M563.139,344.281l6.107,10.624a.5.5,0,0,0,.868-.507l-6.107-10.624a.5.5,0,0,0-.868.507Z" transform="translate(-396.852 -241.115)" fill="#f2f2f2"/>
    <path id="Path_203" data-name="Path 203" d="M603.815,298.924l4.974,10.624c.274.586,1.141.076.868-.507l-4.974-10.624C604.409,297.831,603.542,298.341,603.815,298.924Z" transform="translate(-423.901 -210.942)" fill="#f2f2f2"/>
    <ellipse id="Ellipse_34" data-name="Ellipse 34" cx="7.038" cy="12.735" rx="7.038" ry="12.735" transform="translate(59.138 125.015) rotate(-12.065)" fill="#ccc"/>
    <path id="Path_204" data-name="Path 204" d="M271.075,451.746c0,2.776-.24,8.378-3.016,8.378s-7.038-5.6-7.038-8.378a5.027,5.027,0,0,1,10.054,0Z" transform="translate(-196.025 -309.715)" fill="#e6e6e6"/>
    <path id="Path_205" data-name="Path 205" d="M277.636,467.743a.639.639,0,0,1-.865-.261.091.091,0,0,1,.161-.086.456.456,0,0,0,.8-.431.091.091,0,0,1,.161-.086A.639.639,0,0,1,277.636,467.743Z" transform="translate(-206.489 -323.086)" fill="#fff"/>
    <ellipse id="Ellipse_35" data-name="Ellipse 35" cx="0.73" cy="0.281" rx="0.73" ry="0.281" transform="matrix(0.881, -0.473, 0.473, 0.881, 69.57, 143.165)" fill="#fff"/>
    <path id="Path_206" data-name="Path 206" d="M263.484,459.205a1.625,1.625,0,0,1,2.2-1.179,1.806,1.806,0,1,0-2.278,1.155h0Z" transform="translate(-196.782 -315.659)" fill="#fff"/>
    <circle id="Ellipse_36" data-name="Ellipse 36" cx="0.621" cy="0.621" r="0.621" transform="translate(66.621 141.648)" fill="#3f3d56"/>
    <path id="Path_207" data-name="Path 207" d="M276.313,452.535a1.625,1.625,0,0,1,2.2-1.179,1.806,1.806,0,1,0-2.278,1.155h0Z" transform="translate(-205.311 -311.224)" fill="#fff"/>
    <circle id="Ellipse_37" data-name="Ellipse 37" cx="0.621" cy="0.621" r="0.621" transform="translate(71.149 139.379)" fill="#3f3d56"/>
    <rect id="Rectangle_5" data-name="Rectangle 5" width="3.028" height="0.3" transform="translate(72.766 142.118) rotate(-45.539)" fill="#fff"/>
    <rect id="Rectangle_6" data-name="Rectangle 6" width="3.028" height="0.3" transform="matrix(0.846, -0.533, 0.533, 0.846, 72.998, 142.615)" fill="#fff"/>
    <rect id="Rectangle_7" data-name="Rectangle 7" width="3.028" height="0.3" transform="translate(65.243 145.133) rotate(-10.898)" fill="#fff"/>
    <rect id="Rectangle_8" data-name="Rectangle 8" width="3.028" height="0.3" transform="translate(65.741 146.271) rotate(-24.244)" fill="#fff"/>
    <circle id="Ellipse_38" data-name="Ellipse 38" cx="1.477" cy="1.477" r="1.477" transform="translate(73.186 143.958)" fill="#ccc"/>
    <circle id="Ellipse_39" data-name="Ellipse 39" cx="1.477" cy="1.477" r="1.477" transform="translate(68.788 146.597)" fill="#ccc"/>
    <path id="Path_208" data-name="Path 208" d="M273.971,441.658c-.67-.335-1.033,2.159-1.033,2.159h1.58S274.641,441.993,273.971,441.658Z" transform="translate(-203.948 -306.329)" fill="#e6e6e6"/>
    <path id="Path_209" data-name="Path 209" d="M259.826,448.357c-.658.359,1.183,2.08,1.183,2.08l.9-1.3S260.484,448,259.826,448.357Z" transform="translate(-195.136 -310.758)" fill="#e6e6e6"/>
  </g>
</svg>
