<svg xmlns="http://www.w3.org/2000/svg" width="279.893" height="389.624" viewBox="0 0 279.893 389.624">
  <g id="Group_10" data-name="Group 10" transform="translate(0 0)">
    <circle id="Ellipse_59" data-name="Ellipse 59" cx="43.429" cy="43.429" r="43.429" transform="translate(0 0)" fill="#ff6584"/>
    <path id="Path_234" data-name="Path 234" d="M257.263,136.759l1.807-7.886a1.77,1.77,0,0,1,.815-2.186,6.492,6.492,0,0,1,6.179-3.317,1.771,1.771,0,0,1,2.13.355,7.5,7.5,0,0,1,5.352-2.873,1.771,1.771,0,0,1,.881-1.972,7.7,7.7,0,0,1,6.179-3.317,1.775,1.775,0,0,1,2.4.725l.347.647,6.257,2.658-.542.935-5.2-2.6a5.278,5.278,0,0,1-9.448,4.7l-.625-1.163-5.235,2.81.625,1.163a5.282,5.282,0,0,1-9.307,5l-.275-.513-.844,6.876-1.5-.039Z" transform="translate(-87.415 -39.196)" fill="#3f3d56"/>
    <path id="Path_235" data-name="Path 235" d="M203.955,544.471a1.5,1.5,0,0,1-1.086-2.6l.1-.408-.041-.1a4.023,4.023,0,0,0-7.422.027c-1.214,2.924-2.759,5.852-3.14,8.943a11.9,11.9,0,0,0,.209,4.094,47.72,47.72,0,0,1-4.341-19.82,46.062,46.062,0,0,1,.286-5.138q.237-2.1.657-4.166a48.275,48.275,0,0,1,9.573-20.46A12.847,12.847,0,0,0,204.1,499.3a9.8,9.8,0,0,0,.891-2.678c-.26.034-.981-3.927-.785-4.17-.363-.55-1.011-.824-1.407-1.36-1.969-2.67-4.682-2.2-6.1,1.424-3.025,1.527-3.055,4.059-1.2,6.494,1.181,1.549,1.343,3.646,2.379,5.3-.107.137-.217.269-.324.405a48.586,48.586,0,0,0-5.071,8.034,20.2,20.2,0,0,0-1.206-9.381c-1.154-2.784-3.318-5.129-5.223-7.536a4.146,4.146,0,0,0-7.384,2.036l-.011.106q.424.239.831.508a2.032,2.032,0,0,1-.819,3.7l-.041.006a20.22,20.22,0,0,0,.533,3.023c-2.444,9.452,2.832,12.894,10.366,13.049.166.085.328.171.495.252a49.593,49.593,0,0,0-2.669,12.562,47.035,47.035,0,0,0,.034,7.595l-.013-.09a12.429,12.429,0,0,0-4.243-7.177c-3.265-2.682-7.878-3.67-11.4-5.826a2.333,2.333,0,0,0-3.573,2.269l.014.094a13.651,13.651,0,0,1,1.531.738q.424.24.831.508a2.032,2.032,0,0,1-.819,3.7l-.041.006-.085.013a20.239,20.239,0,0,0,3.723,5.829c1.528,8.251,8.092,9.034,15.112,6.631h0a49.576,49.576,0,0,0,3.33,9.722h11.9c.043-.132.081-.269.119-.4a13.516,13.516,0,0,1-3.292-.2c.883-1.083,1.765-2.175,2.648-3.258a.731.731,0,0,0,.055-.064c.448-.554.9-1.1,1.347-1.659h0a19.8,19.8,0,0,0-.58-5.044h0Z" transform="translate(-57.13 -166.29)" fill="#f2f2f2"/>
    <path id="Path_236" data-name="Path 236" d="M293.145,152.648l7.2,8.639L296.5,133.45l-1.424.712a4.45,4.45,0,0,0-2.459,3.909l.524,14.578Z" transform="translate(-99.429 -45.345)" fill="#2f2e41"/>
    <g id="Group_8" data-name="Group 8" transform="translate(179.225 338.503)">
      <path id="Path_237" data-name="Path 237" d="M271.466,515.909l4.627,8.817.009.024,1.536,2.935,2.474,4.709,0,.006,1.039,1.984,1.548,2.951,3.914-1.487,1.167-.449.613-.232-1.036-2.721-2.739-7.221-4.754-12.506-.053.019-1.169.443-4.666,1.775-1.169.443Z" transform="translate(-271.466 -512.718)" fill="#ffb6b6"/>
      <path id="Path_238" data-name="Path 238" d="M274.8,561.183a2.731,2.731,0,0,0,3.514,1.58l1.869-.712,1.169-.443,4.669-1.769,1.174-.445,2.441-.929.414-4.777,1,1.628,0,.006,1.3,2.112.684-.257,3.586-1.364-6.662-13.935-1.522.476-.556.171-1.194.372-4.451,1.393-.006,0-.31.1-1.194.372-.495.156,1.552,4.076-3.218,4.668-.879,1.275-2.575,3.736a2.724,2.724,0,0,0-.306,2.51Z" transform="translate(-272.539 -522.626)" fill="#2f2e41"/>
    </g>
    <g id="Group_9" data-name="Group 9" transform="translate(217.158 351.607)">
      <path id="Path_239" data-name="Path 239" d="M343.676,532.753l1.4,9.858v.025l.463,3.28.749,5.266v.006l.312,2.218.469,3.3,4.186-.088,1.249-.031.656-.013-.063-2.911-.156-7.722-.281-13.376H352.6l-1.25.025-4.991.106-1.25.025Z" transform="translate(-333.935 -532.566)" fill="#ffb6b6"/>
      <path id="Path_240" data-name="Path 240" d="M328.923,577.511a2.731,2.731,0,0,0,2.78,2.668l2-.044,1.249-.025,4.992-.1,1.256-.025,2.611-.056,1.993-4.361.394,1.868v.006l.512,2.424.731-.012,3.836-.081-1.6-15.362-1.593-.063-.581-.025-1.249-.05-4.661-.181h-.006l-.325-.012-1.249-.05-.519-.019.094,4.361-4.6,3.317-1.256.906-3.68,2.655A2.724,2.724,0,0,0,328.923,577.511Z" transform="translate(-328.922 -543.25)" fill="#2f2e41"/>
    </g>
    <path id="Path_241" data-name="Path 241" d="M363.428,320.952,358.97,294.57l9.568-3.85,2,29.173a5.593,5.593,0,1,1-7.109,1.06Z" transform="translate(-121.973 -98.783)" fill="#ffb6b6"/>
    <path id="Path_242" data-name="Path 242" d="M240.3,153.259l-17.368,20.354-9.093-4.865,21.085-20.26a5.593,5.593,0,1,1,5.376,4.771Z" transform="translate(-72.66 -48.273)" fill="#ffb6b6"/>
    <circle id="Ellipse_60" data-name="Ellipse 60" cx="14.38" cy="14.38" r="14.38" transform="translate(191.61 86.572)" fill="#ffb6b6"/>
    <path id="Path_243" data-name="Path 243" d="M264.5,288.9l38.752-4.233,1.44,6.719v1.61l.827.96.3,1.206.79.064s-.46.814-.13,1.257c.254.341,1.24.224,1.642.809,4.07,5.934,14.614,24.019,9.527,45.931l.72,36.237-.665,2.85.77,1.85.551,2.771.785,57.324,1.92,6.719-2.88,8.639-17.279.96-2.88-11.039,1.44-13.919-4.32-40.8L294.6,392.87l.7-1.981.623-2.641-1.331-2.729-4.719-35.809h0a19.182,19.182,0,0,1-1.483-9.118l.108-1.314-.841-6.378-23.278,37.915-7.771,13.458.812,5.742,5.13,32.55,7.262,7.923,1.32,10.563-10.563,6.6-11.884-3.961V435.77l-18.123-49.5,20.618-61.048,3.36-2.88-.48-3.84,3.171-3.171,6.342-14.229,2.913-6.262L264.5,288.9Z" transform="translate(-78.342 -96.725)" fill="#2f2e41"/>
    <path id="Path_244" data-name="Path 244" d="M293.622,175.979H308.9l3.445,10.559,21.6,10.079-4.8,22.558-5.76,19.679-1.7,1.7.737,3.1h-3.728l.608,4.08,4.08,6-43.9-.94V243l3.435-13.822h0c-4.336-9.54-1.918-15.286-1.32-25.748l-3.814-14.494,12-1.173,3.84-11.786Z" transform="translate(-94.387 -59.795)" fill="#6c63ff"/>
    <path id="Path_245" data-name="Path 245" d="M260.746,200.743l3.36-8.159s-.48-5.76-10.559-7.2-29.215-2.88-29.215-2.88l4.628-5.041,1.981-5.282-9.243-4.621-5.3,2.6-1.963,3.337.66,1.32-2.866,1.739a12.547,12.547,0,0,0,3.464,16.982h0l2.141,2.141,3.139,1.7,3.84-.48,35.935,3.84Z" transform="translate(-71.458 -56.935)" fill="#6c63ff"/>
    <path id="Path_246" data-name="Path 246" d="M345.757,208.418l8.159-3.36s5.76.48,7.2,10.559S364,252.095,364,252.095l2.4,5.28v1.476l2.122,4.524-1.275,1.276,3.473,2.8-15.839,5.76-3.408-8.711,1.488-3.768-2.141-2.141-1.7-3.139.48-3.84-3.84-43.2Z" transform="translate(-117.484 -69.676)" fill="#6c63ff"/>
    <path id="Path_247" data-name="Path 247" d="M330.542,172.864h-3.935a6.682,6.682,0,0,1-1.433-5.136c-.185,1.472-3.314-3.03-3.136-1.327.04.37,1.948,6.767,2.014,7.124a11.19,11.19,0,0,1-6.272,2.852c.74-2.238-.013-3.446-2.291-3.248a7.813,7.813,0,0,1-.409,3.374c-6.879-.231-15.185-4.239-23.391-7.381a9.753,9.753,0,0,1,1.076-6.061,29.079,29.079,0,0,0-2.265,4.364c-.132.343-.251.693-.357,1.043-.073.251-.139.5-.2.746l-3.8.2c3.229-4.668,2.641-11.21,6.569-14.729,6.252-5.592.977-13.732-1.637-21.318a4.517,4.517,0,0,1,2.984-4.43l5.077-1.822c6.457-2.317,6.133-3.644,12.372.191,6.239-1.915,17.165,8.272,17.165,15.845a9.56,9.56,0,0,0,.2,1.915,5.308,5.308,0,0,0-2.08.713,29.5,29.5,0,0,1,2.522,1.591A30.09,30.09,0,0,1,329,159.1c-1.017,4.338.832,11.7,1.538,13.766Z" transform="translate(-97.228 -42.435)" fill="#2f2e41"/>
    <path id="Path_248" data-name="Path 248" d="M337.07,588.556a.783.783,0,0,1-.786.786H169.06a.786.786,0,1,1,0-1.571H336.285a.783.783,0,0,1,.786.786Z" transform="translate(-57.177 -199.717)" fill="#ccc"/>
  </g>
</svg>
