<svg xmlns="http://www.w3.org/2000/svg" width="360.15" height="376.901" viewBox="0 0 360.15 376.901">
  <g id="Group_5" data-name="Group 5" transform="translate(22.862 0)">
    <circle id="Ellipse_29" data-name="Ellipse 29" cx="37.937" cy="37.937" r="37.937" transform="translate(195.042 89.16)" fill="#ff6584"/>
    <path id="Path_112" data-name="Path 112" d="M945.548,383.783c.084-.015.147-.074.244-.059a3.212,3.212,0,0,0-.166-.48l-.352.48Z" transform="translate(-608.504 -228.4)" fill="#fff"/>
    <path id="Path_113" data-name="Path 113" d="M440.28,436.08a88.164,88.164,0,0,0,4.118,24.371c.057.183.117.363.178.547h15.369c-.016-.164-.033-.347-.049-.547-1.025-11.781-6.933-83.486.131-95.747C459.41,365.7,439.089,398.646,440.28,436.08Z" transform="translate(-357.688 -219.193)" fill="#e6e6e6"/>
    <path id="Path_114" data-name="Path 114" d="M430.751,503.6c.128.183.262.366.4.547h11.53c-.087-.156-.189-.339-.306-.547-1.9-3.438-7.543-13.716-12.776-24.371-5.624-11.451-10.784-23.336-10.349-27.637C419.115,452.565,415.223,482.14,430.751,503.6Z" transform="translate(-347.005 -262.345)" fill="#e6e6e6"/>
    <path id="Path_115" data-name="Path 115" d="M663.651,497.437a76.856,76.856,0,0,1-3.591,21.247c-.05.16-.1.317-.155.476h-13.4c.014-.143.029-.3.043-.476.893-10.271,6.044-72.784-.114-83.474C646.973,436.078,664.689,464.8,663.651,497.437Z" transform="translate(-460.094 -254.208)" fill="#e6e6e6"/>
    <path id="Path_116" data-name="Path 116" d="M668.378,556.306c-.112.16-.229.319-.348.477H657.979c.076-.136.164-.3.267-.477,1.661-3,6.576-11.958,11.138-21.247,4.9-9.983,9.4-20.344,9.023-24.094C678.523,511.81,681.916,537.593,668.378,556.306Z" transform="translate(-465.827 -291.829)" fill="#e6e6e6"/>
    <path id="Path_117" data-name="Path 117" d="M367.069,131.806l6.249-5c-4.854-.536-6.849,2.112-7.665,4.207-3.792-1.575-7.921.489-7.921.489l12.5,4.539a9.462,9.462,0,0,0-3.165-4.237Z" transform="translate(-316.717 -101.013)" fill="#3f3d56"/>
    <path id="Path_118" data-name="Path 118" d="M740.953,80.7l6.249-5c-4.854-.536-6.849,2.112-7.665,4.207-3.792-1.575-7.921.489-7.921.489l12.5,4.539a9.461,9.461,0,0,0-3.165-4.237Z" transform="translate(-502.397 -75.633)" fill="#3f3d56"/>
    <path id="Path_119" data-name="Path 119" d="M811.693,473.847q0,6.211-.433,12.322a173.219,173.219,0,0,1-32.177,89.168q-3.687,5.145-7.742,10a174.93,174.93,0,0,1-23.233,23.078l-37.034-21.731-22.143-51.68s33.037-66.892,122.7-65.68Q811.69,471.579,811.693,473.847Z" transform="translate(-481.198 -271.142)" fill="#3f3d56"/>
    <path id="Path_120" data-name="Path 120" d="M814.422,502.329a174.207,174.207,0,0,1-65.081,123.814l-34.405-20.187L695.3,560.121S727.119,495.7,814.422,502.329Z" transform="translate(-484.361 -287.303)" fill="#6c63ff"/>
    <path id="Path_121" data-name="Path 121" d="M566.675,599.053q-3.687,5.145-7.742,10a174.254,174.254,0,0,1-67.442,49.6q-7.951,3.278-16.276,5.781a190.7,190.7,0,0,1-120.934-7.678,174.819,174.819,0,0,1-86.566-84.44q-3.607-7.582-6.487-15.549c33.486-24.531,99.47-59.658,171.385-25.525Q462.452,545.4,485.9,557.06C525.57,576.724,551.971,590.9,566.675,599.053Z" transform="translate(-268.791 -294.859)" fill="#3f3d56"/>
    <path id="Path_122" data-name="Path 122" d="M565.332,622.884a174.309,174.309,0,0,1-291.219-36.74c27.967-22.116,92.47-61.859,163.258-28.266q27.307,12.96,48.757,23.628C527.817,602.168,553.5,616.21,565.332,622.884Z" transform="translate(-275.191 -308.687)" fill="#6c63ff"/>
    <path id="Path_123" data-name="Path 123" d="M534.063,731.651a175.974,175.974,0,0,1-18.082,8.715,174.375,174.375,0,0,1-205.438-56.147C352.147,679.832,467.145,673.917,534.063,731.651Z" transform="translate(-293.283 -376.573)" fill="#3f3d56"/>
    <path id="Path_124" data-name="Path 124" d="M527.98,753.813A174.379,174.379,0,0,1,334.7,712.071C349.836,709.848,468.637,694.583,527.98,753.813Z" transform="translate(-305.281 -390.02)" fill="#6c63ff"/>
    <path id="Path_125" data-name="Path 125" d="M610.375,209.874v.005c-124.38-91.963-266.885-27.234-267.986-26.738v-.005a174.215,174.215,0,0,1,267.986,26.738Z" transform="translate(-309.098 -103.765)" fill="#e6e6e6"/>
    <ellipse id="Ellipse_30" data-name="Ellipse 30" cx="38.713" cy="78.989" rx="38.713" ry="78.989" transform="translate(-22.862 57.478) rotate(-10.221)" fill="#3f3d56"/>
    <path id="Path_126" data-name="Path 126" d="M337.437,403.424c-1.247-94.3-32.8-182.8-33.118-183.679l-2.877,1.038c.317.878,31.7,88.91,32.936,182.682Z" transform="translate(-288.762 -147.203)" fill="#6c63ff"/>
    <rect id="Rectangle_1" data-name="Rectangle 1" width="3.059" height="39.7" transform="translate(-8.245 120.589) rotate(-72.079)" fill="#6c63ff"/>
    <rect id="Rectangle_2" data-name="Rectangle 2" width="39.701" height="3.059" transform="translate(32.628 139.046) rotate(-38.378)" fill="#6c63ff"/>
    <ellipse id="Ellipse_31" data-name="Ellipse 31" cx="41.891" cy="85.474" rx="41.891" ry="85.474" transform="translate(102.55 21.538)" fill="#3f3d56"/>
    <path id="Path_127" data-name="Path 127" d="M552.291,366.906c16.778-100.663.169-200.962,0-201.962l-3.264.553c.169,1,16.682,100.767,0,200.866Z" transform="translate(-411.718 -119.987)" fill="#6c63ff"/>
    <rect id="Rectangle_3" data-name="Rectangle 3" width="3.311" height="42.959" transform="translate(105.998 91.553) rotate(-61.858)" fill="#6c63ff"/>
    <rect id="Rectangle_4" data-name="Rectangle 4" width="42.96" height="3.311" transform="translate(145.981 119.057) rotate(-28.158)" fill="#6c63ff"/>
    <path id="Path_128" data-name="Path 128" d="M662.052,350.363a319.347,319.347,0,0,0-48.009-21.95c-91.685-33.176-182.6-20.39-218.187,27.09,27.694-58.167,126.512-76.457,226.234-40.374a325.664,325.664,0,0,1,34.021,14.534A172.956,172.956,0,0,1,662.052,350.363Z" transform="translate(-335.65 -185.372)" fill="#e6e6e6"/>
    <path id="Path_129" data-name="Path 129" d="M669.472,212.456l6.249-5c-4.854-.536-6.849,2.112-7.665,4.207-3.792-1.575-7.921.489-7.921.489l12.5,4.539A9.46,9.46,0,0,0,669.472,212.456Z" transform="translate(-466.898 -141.066)" fill="#3f3d56"/>
  </g>
</svg>
