<svg xmlns="http://www.w3.org/2000/svg" width="379.143" height="283.816" viewBox="0 0 379.143 283.816">
  <g id="Group_7" data-name="Group 7" transform="translate(0)">
    <circle id="Ellipse_40" data-name="Ellipse 40" cx="34.342" cy="34.342" r="34.342" transform="translate(295.23 191.964)" fill="#2f2e41"/>
    <path id="Path_210" data-name="Path 210" d="M752.295,638.187l-9.49-4.336,8.519-19.951,9.49,4.336Z" transform="translate(-447.187 -369.582)" fill="#2f2e41"/>
    <rect id="Rectangle_9" data-name="Rectangle 9" width="10.433" height="18.693" transform="translate(323.117 252.991) rotate(24.554)" fill="#2f2e41"/>
    <ellipse id="Ellipse_41" data-name="Ellipse 41" cx="3.26" cy="8.694" rx="3.26" ry="8.694" transform="matrix(0.815, -0.58, 0.58, 0.815, 313.561, 269.65)" fill="#2f2e41"/>
    <ellipse id="Ellipse_42" data-name="Ellipse 42" cx="3.26" cy="8.694" rx="3.26" ry="8.694" transform="matrix(0.815, -0.58, 0.58, 0.815, 294.226, 264.109)" fill="#2f2e41"/>
    <circle id="Ellipse_43" data-name="Ellipse 43" cx="11.737" cy="11.737" r="11.737" transform="translate(322.239 207.022)" fill="#fff"/>
    <circle id="Ellipse_44" data-name="Ellipse 44" cx="3.912" cy="3.912" r="3.912" transform="translate(325.827 209.573)" fill="#3f3d56"/>
    <path id="Path_211" data-name="Path 211" d="M908.607,528.818c2.639-12.448,15.916-20.178,29.655-17.266s22.739,15.364,20.1,27.812-12.8,12.839-26.544,9.927S905.969,541.266,908.607,528.818Z" transform="translate(-596.064 -345.405)" fill="#cfcce0"/>
    <ellipse id="Ellipse_45" data-name="Ellipse 45" cx="5.391" cy="17.171" rx="5.391" ry="17.171" transform="translate(344.55 233.046) rotate(-88.617)" fill="#2f2e41"/>
    <ellipse id="Ellipse_46" data-name="Ellipse 46" cx="5.391" cy="17.171" rx="5.391" ry="17.171" transform="translate(276.457 227.267) rotate(-88.617)" fill="#2f2e41"/>
    <path id="Path_212" data-name="Path 212" d="M919.511,686.349a7.825,7.825,0,1,0,14.234,6.5c1.8-3.931-1.019-6.2-4.949-8S921.306,682.418,919.511,686.349Z" transform="translate(-602.42 -449.257)" fill="#fff"/>
    <path id="Path_213" data-name="Path 213" d="M341.477,420.62c-9.9-2.534-16.463-10.291-16.463-10.291s9.484-3.648,19.383-1.114,16.463,10.291,16.463,10.291S351.375,423.154,341.477,420.62Z" transform="translate(-244.946 -283.625)" fill="#6c63ff"/>
    <path id="Path_214" data-name="Path 214" d="M321.811,403.615l.618-.238c.1-.037,9.74-3.673,19.669-1.131s16.639,10.364,16.706,10.443l.428.506-.619.238c-.1.037-9.74,3.673-19.669,1.131h0c-9.93-2.542-16.639-10.364-16.706-10.443Zm35.8,9.166c-1.661-1.762-7.591-7.534-15.75-9.623s-16.135.123-18.437.871c1.661,1.761,7.591,7.534,15.751,9.623s16.136-.123,18.437-.871Z" transform="translate(-243.018 -279.426)" fill="#3f3d56"/>
    <path id="Path_215" data-name="Path 215" d="M180.921,201.815l-3.245,13.522,19.472,4.327s-1.623-15.145,0-16.767Z" transform="translate(-156.245 -159.305)" fill="#a0616a"/>
    <circle id="Ellipse_47" data-name="Ellipse 47" cx="13.522" cy="13.522" r="13.522" transform="translate(18.997 24.39)" fill="#a0616a"/>
    <path id="Path_216" data-name="Path 216" d="M195.089,163.456s1.422-15.351-14.421-9.772c0,0-11.517-1.694-14.762,12.752l3.7,13.98.731,3.073L195,185.067s-11.238-6.119-11.826-17.78l2.175,2.141Z" transform="translate(-149.159 -129.594)" fill="#2f2e41"/>
    <path id="Path_217" data-name="Path 217" d="M179.714,442.746s11.9,16.767,20.013,21.094l27.044,36.78-7.031,67.61s17.308,11.359,40.566-4.868l-7.031-73.56-30.83-53.547Z" transform="translate(-157.472 -300.444)" fill="#2f2e41"/>
    <path id="Path_218" data-name="Path 218" d="M292.961,762.01s-8.143,13.4,3.832,14.212,19.64-2.03,23.472,0,18.2-.406,16.766-6.9-20.119-10.964-20.119-10.964Z" transform="translate(-224.021 -494.356)" fill="#2f2e41"/>
    <path id="Path_219" data-name="Path 219" d="M140.636,397.473s4.271,20.112,10,27.3l10.233,44.491-33.277,59.272s11.382,17.293,39.168,11.625l22.729-70.312-7.056-61.384Z" transform="translate(-126.094 -277.096)" fill="#2f2e41"/>
    <path id="Path_220" data-name="Path 220" d="M133.976,728.018s-12.4,8.938-1.748,15.153,18.71,7.021,21.464,10.681,16.8,7.9,17.882,1.116-14.346-19.5-14.346-19.5Z" transform="translate(-126.284 -476.092)" fill="#2f2e41"/>
    <path id="Path_221" data-name="Path 221" d="M197.18,302.072c0,2.7-31.371,10.277-50.3,7.572-8.908-1.271-12.424-11.77-13.657-22.522a99.79,99.79,0,0,1-.579-11.537c.011-2.488.092-4.776.2-6.718.211-3.808.514-6.28.514-6.28l-.963-5.284-1.163-6.393-2.034-11.2-.168-.925c-10.277-4.868-2.163-28.126-2.163-30.289s13.522,1.623,13.522,1.623l2.7-3.786,8.654,2.7,9.428-5.106,8.962,12.137s3.186,4.927,7.015,12.305c1.617,3.121,3.348,6.68,5,10.488.855,1.969,1.688,4.008,2.472,6.09,1.044,2.759,2.007,5.593,2.818,8.438.227.79.449,1.59.671,2.4.552,2.034,1.093,4.143,1.612,6.29.892,3.646,1.731,7.4,2.51,11.083C195.2,287.246,197.18,300.238,197.18,302.072Z" transform="translate(-123.825 -160.581)" fill="#3f3d56"/>
    <path id="Path_222" data-name="Path 222" d="M166.479,161.432s12.981-18.931,27.044-12.981c0,0-1.082-12.44-9.736-13.522s-13.522-3.786-13.522-3.786l-7.572,3.786v10.277S162.152,159.269,166.479,161.432Z" transform="translate(-147.212 -116.759)" fill="#3f3d56"/>
    <circle id="Ellipse_48" data-name="Ellipse 48" cx="7.572" cy="7.572" r="7.572" transform="translate(7.638 4.378)" fill="#cfcce0"/>
    <path id="Path_223" data-name="Path 223" d="M190.282,275.839l-50.923,12.045-2.034-11.2,47.954-11.337C186.9,268.472,188.627,272.031,190.282,275.839Z" transform="translate(-131.953 -197.555)" fill="#cfcce0"/>
    <path id="Path_224" data-name="Path 224" d="M145.806,330.919c.211-3.808.514-6.28.514-6.28l-.963-5.284,52.232-12.348c1.044,2.758,2.007,5.593,2.818,8.438.227.79.449,1.59.671,2.4Z" transform="translate(-136.788 -222.633)" fill="#cfcce0"/>
    <path id="Path_225" data-name="Path 225" d="M205.571,361.131l-59.015,13.955a99.791,99.791,0,0,1-.579-11.537l57.085-13.5C203.954,353.694,204.792,357.448,205.571,361.131Z" transform="translate(-137.16 -248.545)" fill="#cfcce0"/>
    <path id="Path_226" data-name="Path 226" d="M304.583,392.02s11.359-1.082,9.195,7.572-15.145,3.245-15.145,3.245Z" transform="translate(-229.064 -273.787)" fill="#a0616a"/>
    <path id="Path_227" data-name="Path 227" d="M216.343,298.412,209.311,314.1s-2.634-.984-6.626-2.493c-1.233-.465-2.6-.979-4.051-1.531-.746-.287-1.52-.579-2.31-.882-1.3-.492-2.661-1.011-4.046-1.542l-2.3-.887c-1.336-.519-2.688-1.039-4.035-1.563-9.86-3.824-19.531-7.707-21.522-8.952-2.964-1.855-12.024-17.919-17.432-27.861a24.067,24.067,0,0,1-.876-21.565c3.072-6.642,7.475-8.054,11.456-7.545a12.438,12.438,0,0,1,10.536,10.39l4.43,26.568L194.7,287.459l3.846,1.947,2.2,1.109,3.846,1.947,2.191,1.109,3.846,1.947Z" transform="translate(-135.956 -181.802)" fill="#3f3d56"/>
    <path id="Path_228" data-name="Path 228" d="M140.98,248.717s5.95-22.176,20.013-17.849C160.993,230.867,146.93,231.408,140.98,248.717Z" transform="translate(-134.153 -176.458)" opacity="0.1"/>
    <path id="Path_229" data-name="Path 229" d="M262.029,362.434l-8.573,17.357c-1.336-.519-2.688-1.039-4.035-1.563l8.762-17.741Z" transform="translate(-199.437 -254.829)" fill="#cfcce0"/>
    <path id="Path_230" data-name="Path 230" d="M277.66,370.112l-8.265,16.729c-1.3-.492-2.661-1.011-4.046-1.542l8.465-17.135Z" transform="translate(-209.026 -259.452)" fill="#cfcce0"/>
    <path id="Path_231" data-name="Path 231" d="M293.31,377.791l-7.94,16.086c-1.233-.465-2.6-.979-4.051-1.531l8.146-16.5Z" transform="translate(-218.64 -264.075)" fill="#cfcce0"/>
    <path id="Path_232" data-name="Path 232" d="M673.248,364.417c.031,64.338-38.206,86.819-85.384,86.841q-1.644,0-3.272-.035-3.28-.069-6.491-.3c-42.581-2.994-75.676-26.593-75.705-86.427-.03-61.921,79.071-140.1,85-145.884.005,0,.005,0,.01-.005.225-.22.341-.33.341-.33S673.216,300.083,673.248,364.417Z" transform="translate(-351.734 -169.218)" fill="#6c63ff"/>
    <path id="Path_233" data-name="Path 233" d="M657.3,441.418l31.223-43.669-31.3,48.462-.081,5.012q-3.28-.069-6.491-.3l3.335-64.366-.026-.5.058-.095.317-6.082-31.425-48.552,31.517,44,.079,1.29,2.519-48.631-26.906-50.174,27.232,41.628,2.6-100.827.01-.336v.33l-.4,79.512,26.74-31.535L659.451,304.97l-.687,43.545,24.974-41.8-25.07,48.2-.381,24.213,36.244-58.185-36.381,66.632Z" transform="translate(-424.289 -169.217)" fill="#3f3d56"/>
    <circle id="Ellipse_49" data-name="Ellipse 49" cx="1.99" cy="1.99" r="1.99" transform="translate(106.923 7.96)" fill="#cfcce0"/>
    <circle id="Ellipse_50" data-name="Ellipse 50" cx="1.99" cy="1.99" r="1.99" transform="translate(124.036 65.666)" fill="#cfcce0"/>
    <circle id="Ellipse_51" data-name="Ellipse 51" cx="1.99" cy="1.99" r="1.99" transform="translate(246.613 79.197)" fill="#cfcce0"/>
    <circle id="Ellipse_52" data-name="Ellipse 52" cx="1.99" cy="1.99" r="1.99" transform="translate(330.586 142.874)" fill="#cfcce0"/>
    <circle id="Ellipse_53" data-name="Ellipse 53" cx="1.99" cy="1.99" r="1.99" transform="translate(278.451 188.243)" fill="#cfcce0"/>
    <circle id="Ellipse_54" data-name="Ellipse 54" cx="1.99" cy="1.99" r="1.99" transform="translate(165.426 202.968)" fill="#cfcce0"/>
    <circle id="Ellipse_55" data-name="Ellipse 55" cx="4.378" cy="4.378" r="4.378" transform="translate(219.551)" fill="#cfcce0"/>
    <circle id="Ellipse_56" data-name="Ellipse 56" cx="4.378" cy="4.378" r="4.378" transform="translate(203.233 227.244)" fill="#cfcce0"/>
    <circle id="Ellipse_57" data-name="Ellipse 57" cx="4.378" cy="4.378" r="4.378" transform="translate(303.524 72.034)" fill="#cfcce0"/>
    <circle id="Ellipse_58" data-name="Ellipse 58" cx="4.378" cy="4.378" r="4.378" transform="translate(180.151 136.108)" fill="#cfcce0"/>
    <rect id="Rectangle_10" data-name="Rectangle 10" width="341.066" height="0.796" transform="translate(6.638 281.767)" fill="#3f3d56"/>
  </g>
</svg>
